# xmcd
# 
# Track frame offsets:
#     150
#     12635
#     29054
#     47274
#     68658
# 
# Disc length: 1068
# 
# Revision: 0
# Processed by: cddbd v1.5.2PL0 Copyright (c) Steve Scherf et al.
# Submitted via: fre:ac v1.0.17
# 
DISCID=3b042a05
DTITLE=James Durbin - American Idol Season 10 Highlights
DYEAR=2011
DGENRE=Pop
TTITLE0=Will You Still Love Me Tomorrow
TTITLE1=Maybe I'm Amazed
TTITLE2=Uprising
TTITLE3=As My Guitar Gently Weeps
TTITLE4=Good Riddance (Time of Your Life)
EXTD=
EXTT0=
EXTT1=
EXTT2=
EXTT3=
EXTT4=
PLAYORDER=
